<svg width="395.52" viewBox="3.8499999046325684 -36 74.3499984741211 41" height="218.10786819098854" data-palette-color="#009b7d" version="1.1" xmlns="http://www.w3.org/2000/svg" xmlns:xlink="http://www.w3.org/1999/xlink">
  <path d="M3.85 0L3.85-36 7.6-36 7.6-21.6Q8.8-23.4 10.85-24.38 12.9-25.35 15.45-25.35L15.45-25.35Q18.2-25.35 20.35-24.1 22.5-22.85 23.73-20.4 24.95-17.95 24.95-14.3L24.95-14.3 24.95 0 20.95 0 20.95-13.85Q20.95-17.75 19.3-19.83 17.65-21.9 14.5-21.9L14.5-21.9Q11.25-21.9 9.43-19.7 7.6-17.5 7.6-13.3L7.6-13.3 7.6 0 3.85 0ZM32.95 0L32.95-25 36.65-25 36.65 0 32.95 0ZM34.85-30L34.85-30Q33.7-30 32.95-30.75 32.2-31.5 32.2-32.6L32.2-32.6Q32.2-33.75 32.95-34.5 33.7-35.25 34.85-35.25L34.85-35.25Q35.9-35.25 36.67-34.5 37.45-33.75 37.45-32.6L37.45-32.6Q37.45-31.5 36.67-30.75 35.9-30 34.85-30ZM58.9 5L58.9-8.15 62.9-8.15 62.9 5 58.9 5ZM60.85 0.35L60.85 0.35Q57.15 0.35 53.97-0.95 50.8-2.25 48.42-4.63 46.05-7 44.72-10.28 43.4-13.55 43.4-17.5L43.4-17.5Q43.4-21.45 44.72-24.73 46.05-28 48.42-30.38 50.8-32.75 53.97-34.05 57.15-35.35 60.85-35.35L60.85-35.35Q64.5-35.35 67.67-34.05 70.84-32.75 73.2-30.38 75.55-28 76.87-24.73 78.2-21.45 78.2-17.5L78.2-17.5Q78.2-13.55 76.87-10.28 75.55-7 73.2-4.63 70.84-2.25 67.67-0.95 64.5 0.35 60.85 0.35ZM60.85-3.15L60.85-3.15Q64.59-3.15 67.59-4.9 70.59-6.65 72.34-9.88 74.09-13.1 74.09-17.5L74.09-17.5Q74.09-21.95 72.34-25.18 70.59-28.4 67.59-30.13 64.59-31.85 60.85-31.85L60.85-31.85Q57.05-31.85 54.02-30.13 51-28.4 49.25-25.18 47.5-21.95 47.5-17.5L47.5-17.5Q47.5-13.1 49.25-9.88 51-6.65 54.02-4.9 57.05-3.15 60.85-3.15Z" opacity="1" transform="matrix(1,0,0,1,0,0)" fill="#009b7d" class="wordmark-text-0" data-fill-palette-color="primary" id="text-0"></path>
</svg>