<svg width="70" height="42" viewBox="0 0 70 42" fill="none" xmlns="http://www.w3.org/2000/svg">
<g id="Layer_1" clip-path="url(#clip0_3_146)">
<path id="Vector" d="M66.3755 24.1389C68.437 24.1389 69.8762 22.8866 69.8762 21.0902V3.04876C69.8762 1.25578 68.437 0 66.3755 0C64.3139 0 62.8748 1.25578 62.8748 3.04876V21.0902C62.8748 22.8831 64.3139 24.1389 66.3755 24.1389Z" fill="#0C0C0C"/>
<path id="Vector_2" d="M33.9286 20.4065H30.6966C31.4392 17.267 31.814 13.5171 31.814 9.24046V6.22658C31.814 3.1848 30.5905 1.99878 27.4434 1.99878H7.21711C5.59052 1.99878 4.49788 3.22317 4.49788 5.04754C4.49788 6.87191 5.59052 8.0963 7.21711 8.0963H24.8444C24.8798 8.0963 24.9081 8.0963 24.9328 8.0963C24.9328 8.12072 24.9328 8.14862 24.9328 8.18351V9.44627C24.9328 9.99742 24.9328 10.5346 24.9222 11.0509L6.34724 11.2462C5.62235 11.2462 4.98939 11.5044 4.51202 11.9892C3.93918 12.5753 3.63861 13.4473 3.67397 14.445C3.73762 16.2275 4.85502 17.4275 6.44979 17.3821L24.5474 16.9949C24.3953 18.2333 24.1726 19.3844 23.9463 20.4099H2.71924C1.09265 20.4099 0 21.6343 0 23.4587C0 25.2831 1.09265 26.4656 2.71924 26.4656H9.12659V38.8804C9.12659 40.6769 10.5021 41.8873 12.546 41.8873C14.5898 41.8873 15.9264 40.6525 15.9264 38.8804V26.4656H20.7284V38.8804C20.7284 40.6769 22.104 41.8873 24.1478 41.8873C26.1917 41.8873 27.5283 40.6525 27.5283 38.8804V26.4656H33.9356C35.5622 26.4656 36.6549 25.2587 36.6549 23.4587C36.6549 21.6588 35.5622 20.4099 33.9356 20.4099L33.9286 20.4065Z" fill="#0C0C0C"/>
<path id="Vector_3" d="M59.3071 11.6438C59.3071 5.39284 55.1805 1.51038 48.5398 1.51038C41.8991 1.51038 37.7725 5.39284 37.7725 11.6438C37.7725 17.8948 41.8991 21.7773 48.5398 21.7773C55.1805 21.7773 59.3071 17.8948 59.3071 11.6438ZM44.5299 11.6438C44.5299 8.90903 45.8807 7.52418 48.5398 7.52418C51.1989 7.52418 52.5532 8.91252 52.5532 11.6438C52.5532 14.3752 51.2024 15.7635 48.5398 15.7635C45.8771 15.7635 44.5299 14.3787 44.5299 11.6438Z" fill="#0C0C0C"/>
<path id="Vector_4" d="M56.7539 24.3831C48.2108 24.3831 43.5078 27.4911 43.5078 33.1352C43.5078 38.7792 48.2108 41.8838 56.7539 41.8838C65.2971 41.8838 70 38.7757 70 33.1352C70 27.4946 65.2971 24.3831 56.7539 24.3831ZM56.7539 36.0304C52.5849 36.0304 50.4703 35.0572 50.4703 33.1317C50.4703 31.2061 52.5849 30.2329 56.7539 30.2329C60.9229 30.2329 63.0375 31.2096 63.0375 33.1317C63.0375 35.0537 60.9229 36.0304 56.7539 36.0304Z" fill="#0C0C0C"/>
<path id="Vector_5" d="M41.1031 38.7235L37.8111 32.2911C37.4186 31.5237 36.6265 31.0876 35.8097 31.0981C34.9928 31.0876 34.2007 31.5237 33.8082 32.2911L30.5162 38.7235C29.9681 39.7979 30.403 41.106 31.4921 41.6467C32.5812 42.1873 33.9073 41.7583 34.4553 40.6839L35.8132 38.0363L37.171 40.6839C37.7191 41.7583 39.0487 42.1873 40.1343 41.6467C41.2234 41.106 41.6583 39.7944 41.1102 38.7235H41.1031Z" fill="#5EC3FF"/>
</g>
<defs>
<clipPath id="clip0_3_146">
<rect width="70" height="41.8803" fill="white"/>
</clipPath>
</defs>
</svg>

