<svg width="164" height="99" viewBox="0 0 164 99" fill="none" xmlns="http://www.w3.org/2000/svg">
<g clip-path="url(#clip0_42_85)">
<path d="M155.508 57.062C160.341 57.062 163.71 54.102 163.71 49.8584V7.20357C163.71 2.96006 160.341 0 155.508 0C150.675 0 147.306 2.96006 147.306 7.20357V49.8469C147.306 54.0904 150.675 57.0505 155.508 57.0505V57.062Z" fill="white"/>
<path d="M79.4849 48.2397H71.9105C73.653 40.8164 74.536 31.9594 74.536 21.842V14.7193C74.536 7.52733 71.6665 4.72916 64.3012 4.72916H16.9146C13.1042 4.72916 10.5484 7.61984 10.5484 11.9327C10.5484 16.2456 13.1042 19.1363 16.9146 19.1363H58.2138C58.2951 19.1363 58.3648 19.1363 58.4229 19.1363C58.4229 19.1941 58.4229 19.2635 58.4229 19.3444V22.3276C58.4229 23.6342 58.4229 24.8945 58.3997 26.1202L14.8816 26.5827C13.1855 26.5827 11.6985 27.1955 10.5833 28.3402C9.23567 29.7278 8.53864 31.7859 8.61996 34.1447C8.77099 38.3535 11.3849 41.1864 15.1256 41.0823L57.5284 40.1689C57.1682 43.0943 56.6455 45.8115 56.1227 48.2397H6.36623C2.55578 48.2397 0 51.1303 0 55.4432C0 59.7561 2.55578 62.5427 6.36623 62.5427H21.3756V91.8889C21.3756 96.144 24.5936 98.9884 29.3915 98.9884C34.1894 98.9884 37.3028 96.0631 37.3028 91.8889V62.5427H48.5483V91.8889C48.5483 96.144 51.7662 98.9884 56.5641 98.9884C61.362 98.9884 64.4755 96.0631 64.4755 91.8889V62.5427H79.4849C83.2953 62.5427 85.8511 59.6868 85.8511 55.4432C85.8511 51.1997 83.2953 48.2397 79.4849 48.2397Z" fill="white"/>
<path d="M138.953 27.5193C138.953 12.7421 129.288 3.56131 113.721 3.56131C98.1537 3.56131 88.4882 12.7421 88.4882 27.5193C88.4882 42.2964 98.1537 51.4657 113.721 51.4657C129.288 51.4657 138.953 42.2849 138.953 27.5193ZM104.322 27.5193C104.322 21.0557 107.482 17.7835 113.721 17.7835C119.959 17.7835 123.119 21.0673 123.119 27.5193C123.119 33.9713 119.959 37.2551 113.721 37.2551C107.482 37.2551 104.322 33.9828 104.322 27.5193Z" fill="white"/>
<path d="M132.97 57.6286C112.954 57.6286 101.941 64.9709 101.941 78.3143C101.941 91.6577 112.966 99 132.97 99C152.975 99 164 91.6577 164 78.3143C164 64.9709 152.975 57.6286 132.97 57.6286ZM132.97 85.171C123.2 85.171 118.251 82.87 118.251 78.3258C118.251 73.7817 123.2 71.4692 132.97 71.4692C142.741 71.4692 147.689 73.7817 147.689 78.3258C147.689 82.87 142.741 85.171 132.97 85.171Z" fill="white"/>
<path d="M96.3066 91.5305L88.5928 76.3255C87.675 74.5102 85.8163 73.4811 83.8994 73.5042C81.9826 73.4811 80.1355 74.5102 79.2061 76.3255L71.4923 91.5305C70.2028 94.0627 71.2251 97.1615 73.7692 98.445C76.3134 99.7284 79.4268 98.7109 80.7163 96.1787L83.8994 89.9233L87.0826 96.1787C88.3721 98.7109 91.4739 99.7284 94.0296 98.445C96.5738 97.1615 97.5961 94.0743 96.3066 91.5305Z" fill="#5EC3FF"/>
</g>
<defs>
<clipPath id="clip0_42_85">
<rect width="164" height="99" fill="white"/>
</clipPath>
</defs>
</svg>
