<svg version="1.1" viewBox="0 0 640 400" xmlns="http://www.w3.org/2000/svg" xmlns:xlink="http://www.w3.org/1999/xlink" xmlns:svgjs="http://svgjs.dev/svgjs" matcher="0.0027655846022791586">
  <svg viewBox="0 0 397.4975999999999 732.2740794527654" height="247.2" width="134.18665152456518">
    <g>
      <rect width="397.4975999999999" height="19.669192640783322" x="0" y="369.3075774388819" fill="#009b7d" opacity="1" stroke-width="0" stroke="transparent" fill-opacity="1" class="rect-r-0" data-fill-palette-color="secondary" rx="1%" id="r-0" data-palette-color="#009b7d"></rect>
    </g>
    <g transform="matrix(1,0,0,1,0.9887999999999693,440.466803170721)">
      <svg viewBox="0 0 395.52 291.80727628204437" height="291.80727628204437" width="395.52">
        <g id="textblocktransform">
          <svg viewBox="0 0 395.52 291.80727628204437" height="291.80727628204437" width="395.52" id="textblock">
            <g>
              <svg viewBox="0 0 395.52 218.10786819098854" height="218.10786819098854" width="395.52">
                <g transform="matrix(1,0,0,1,0,0)">
                  <svg width="395.52" viewBox="3.8499999046325684 -36 74.3499984741211 41" height="218.10786819098854" data-palette-color="#009b7d">
                    <path d="M3.85 0L3.85-36 7.6-36 7.6-21.6Q8.8-23.4 10.85-24.38 12.9-25.35 15.45-25.35L15.45-25.35Q18.2-25.35 20.35-24.1 22.5-22.85 23.73-20.4 24.95-17.95 24.95-14.3L24.95-14.3 24.95 0 20.95 0 20.95-13.85Q20.95-17.75 19.3-19.83 17.65-21.9 14.5-21.9L14.5-21.9Q11.25-21.9 9.43-19.7 7.6-17.5 7.6-13.3L7.6-13.3 7.6 0 3.85 0ZM32.95 0L32.95-25 36.65-25 36.65 0 32.95 0ZM34.85-30L34.85-30Q33.7-30 32.95-30.75 32.2-31.5 32.2-32.6L32.2-32.6Q32.2-33.75 32.95-34.5 33.7-35.25 34.85-35.25L34.85-35.25Q35.9-35.25 36.67-34.5 37.45-33.75 37.45-32.6L37.45-32.6Q37.45-31.5 36.67-30.75 35.9-30 34.85-30ZM58.9 5L58.9-8.15 62.9-8.15 62.9 5 58.9 5ZM60.85 0.35L60.85 0.35Q57.15 0.35 53.97-0.95 50.8-2.25 48.42-4.63 46.05-7 44.72-10.28 43.4-13.55 43.4-17.5L43.4-17.5Q43.4-21.45 44.72-24.73 46.05-28 48.42-30.38 50.8-32.75 53.97-34.05 57.15-35.35 60.85-35.35L60.85-35.35Q64.5-35.35 67.67-34.05 70.84-32.75 73.2-30.38 75.55-28 76.87-24.73 78.2-21.45 78.2-17.5L78.2-17.5Q78.2-13.55 76.87-10.28 75.55-7 73.2-4.63 70.84-2.25 67.67-0.95 64.5 0.35 60.85 0.35ZM60.85-3.15L60.85-3.15Q64.59-3.15 67.59-4.9 70.59-6.65 72.34-9.88 74.09-13.1 74.09-17.5L74.09-17.5Q74.09-21.95 72.34-25.18 70.59-28.4 67.59-30.13 64.59-31.85 60.85-31.85L60.85-31.85Q57.05-31.85 54.02-30.13 51-28.4 49.25-25.18 47.5-21.95 47.5-17.5L47.5-17.5Q47.5-13.1 49.25-9.88 51-6.65 54.02-4.9 57.05-3.15 60.85-3.15Z" opacity="1" transform="matrix(1,0,0,1,0,0)" fill="#009b7d" class="wordmark-text-0" data-fill-palette-color="primary" id="text-0"></path>
                  </svg>
                </g>
              </svg>
            </g>
            <g transform="matrix(1,0,0,1,0,269.59790128204435)">
              <svg viewBox="0 0 395.52 22.209374999999998" height="22.209374999999998" width="395.52">
                <g transform="matrix(1,0,0,1,0,0)">
                  <svg width="395.52" viewBox="4.25 -36 819.1199951171875 46" height="22.209374999999998" data-palette-color="#009b7d">
                    <path d="M4.25 0L4.25-35 8.25-35 8.25-19.55 27-19.55 27-35 31-35 31 0 27 0 27-16.05 8.25-16.05 8.25 0 4.25 0ZM58.2 0L54.75 0 54.45-4.5Q53.4-2.2 51.35-0.93 49.3 0.35 46.15 0.35L46.15 0.35Q43.45 0.35 41.55-0.5 39.65-1.35 38.62-2.93 37.6-4.5 37.6-6.65L37.6-6.65Q37.6-9.8 39.95-11.83 42.3-13.85 46.75-14.3L46.75-14.3 54.45-15.15 54.45-17.15Q54.45-19.25 52.9-20.53 51.35-21.8 48.7-21.8L48.7-21.8Q46.1-21.8 44.37-20.6 42.65-19.4 42-17.15L42-17.15 38.6-18.35Q39.6-21.65 42.27-23.5 44.95-25.35 48.8-25.35L48.8-25.35Q53.25-25.35 55.72-23.08 58.2-20.8 58.2-16.9L58.2-16.9 58.2 0ZM54.45-11.15L54.45-11.95 46.7-11.05Q44.2-10.75 42.9-9.68 41.6-8.6 41.6-6.85L41.6-6.85Q41.6-5.1 42.87-4.05 44.15-3 46.55-3L46.55-3Q49.3-3 51.05-4.1 52.8-5.2 53.62-7.08 54.45-8.95 54.45-11.15L54.45-11.15ZM65.5 0L65.5-25 68.95-25 69.15-21.45Q70.35-23.3 72.3-24.33 74.25-25.35 76.85-25.35L76.85-25.35Q79.7-25.35 81.85-24.13 84-22.9 85.2-20.48 86.4-18.05 86.4-14.4L86.4-14.4 86.4 0 82.65 0 82.65-13.95Q82.65-17.85 80.97-19.88 79.3-21.9 76.15-21.9L76.15-21.9Q72.9-21.9 71.07-19.75 69.25-17.6 69.25-13.4L69.25-13.4 69.25 0 65.5 0ZM93.64 0L93.64-36 97.44-36 97.44-14.15 99.74-14.15 109.59-25 114.89-25 103.09-12.5 114.94 0 109.59 0 99.74-10.9 97.44-10.9 97.44 0 93.64 0ZM129.29 0.35L129.29 0.35Q125.74 0.35 122.94-1.2 120.14-2.75 118.54-5.63 116.94-8.5 116.94-12.45L116.94-12.45Q116.94-16.45 118.57-19.35 120.19-22.25 123.02-23.8 125.84-25.35 129.39-25.35L129.39-25.35Q132.94-25.35 135.77-23.8 138.59-22.25 140.22-19.38 141.84-16.5 141.84-12.55L141.84-12.55Q141.84-8.55 140.19-5.65 138.54-2.75 135.69-1.2 132.84 0.35 129.29 0.35ZM129.24-3.2L129.24-3.2Q131.44-3.2 133.39-4.17 135.34-5.15 136.57-7.23 137.79-9.3 137.79-12.5L137.79-12.5Q137.79-15.75 136.59-17.8 135.39-19.85 133.47-20.83 131.54-21.8 129.34-21.8L129.34-21.8Q127.14-21.8 125.24-20.83 123.34-19.85 122.17-17.78 120.99-15.7 120.99-12.5L120.99-12.5Q120.99-9.25 122.14-7.2 123.29-5.15 125.17-4.17 127.04-3.2 129.24-3.2ZM158.79 0.35L158.79 0.35Q155.24 0.35 152.44-1.2 149.64-2.75 148.04-5.63 146.44-8.5 146.44-12.45L146.44-12.45Q146.44-16.45 148.06-19.35 149.69-22.25 152.51-23.8 155.34-25.35 158.89-25.35L158.89-25.35Q162.44-25.35 165.26-23.8 168.09-22.25 169.71-19.38 171.34-16.5 171.34-12.55L171.34-12.55Q171.34-8.55 169.69-5.65 168.04-2.75 165.19-1.2 162.34 0.35 158.79 0.35ZM158.74-3.2L158.74-3.2Q160.94-3.2 162.89-4.17 164.84-5.15 166.06-7.23 167.29-9.3 167.29-12.5L167.29-12.5Q167.29-15.75 166.09-17.8 164.89-19.85 162.96-20.83 161.04-21.8 158.84-21.8L158.84-21.8Q156.64-21.8 154.74-20.83 152.84-19.85 151.66-17.78 150.49-15.7 150.49-12.5L150.49-12.5Q150.49-9.25 151.64-7.2 152.79-5.15 154.66-4.17 156.54-3.2 158.74-3.2ZM177.49 0L177.49-36 181.29-36 181.29-14.15 183.59-14.15 193.44-25 198.74-25 186.94-12.5 198.79 0 193.44 0 183.59-10.9 181.29-10.9 181.29 0 177.49 0ZM204.13 0L204.13-25 207.83-25 207.83 0 204.13 0ZM206.03-30L206.03-30Q204.88-30 204.13-30.75 203.38-31.5 203.38-32.6L203.38-32.6Q203.38-33.75 204.13-34.5 204.88-35.25 206.03-35.25L206.03-35.25Q207.08-35.25 207.86-34.5 208.63-33.75 208.63-32.6L208.63-32.6Q208.63-31.5 207.86-30.75 207.08-30 206.03-30ZM216.28 0L216.28-36 220.03-36 220.03 0 216.28 0ZM231.43-19.9L231.03-19.95Q232.13-22.25 234.48-23.8 236.83-25.35 240.43-25.35L240.43-25.35Q243.88-25.35 246.45-23.75 249.03-22.15 250.45-19.28 251.88-16.4 251.88-12.5L251.88-12.5Q251.88-8.6 250.43-5.7 248.98-2.8 246.4-1.23 243.83 0.35 240.43 0.35L240.43 0.35Q237.03 0.35 234.78-1.1 232.53-2.55 231.38-4.65L231.38-4.65 231.13 0 227.68 0 227.68-36 231.43-36 231.43-19.9ZM247.83-12.5L247.83-12.5Q247.83-16.8 245.6-19.33 243.38-21.85 239.63-21.85L239.63-21.85Q237.28-21.85 235.4-20.73 233.53-19.6 232.48-17.53 231.43-15.45 231.43-12.5L231.43-12.5Q231.43-9.55 232.48-7.45 233.53-5.35 235.4-4.25 237.28-3.15 239.63-3.15L239.63-3.15Q243.38-3.15 245.6-5.68 247.83-8.2 247.83-12.5ZM268.78 0.35L268.78 0.35Q265.23 0.35 262.43-1.2 259.63-2.75 258.03-5.63 256.43-8.5 256.43-12.45L256.43-12.45Q256.43-16.45 258.05-19.35 259.68-22.25 262.5-23.8 265.33-25.35 268.88-25.35L268.88-25.35Q272.43-25.35 275.25-23.8 278.08-22.25 279.7-19.38 281.33-16.5 281.33-12.55L281.33-12.55Q281.33-8.55 279.68-5.65 278.03-2.75 275.18-1.2 272.33 0.35 268.78 0.35ZM268.73-3.2L268.73-3.2Q270.93-3.2 272.88-4.17 274.83-5.15 276.05-7.23 277.28-9.3 277.28-12.5L277.28-12.5Q277.28-15.75 276.08-17.8 274.88-19.85 272.95-20.83 271.03-21.8 268.83-21.8L268.83-21.8Q266.63-21.8 264.73-20.83 262.83-19.85 261.65-17.78 260.48-15.7 260.48-12.5L260.48-12.5Q260.48-9.25 261.63-7.2 262.78-5.15 264.65-4.17 266.53-3.2 268.73-3.2ZM301.87 0L301.87-35 305.87-35 305.87 0 301.87 0ZM313.97 0L313.97-25 317.42-25 317.62-21.45Q318.82-23.3 320.77-24.33 322.72-25.35 325.32-25.35L325.32-25.35Q328.17-25.35 330.32-24.13 332.47-22.9 333.67-20.48 334.87-18.05 334.87-14.4L334.87-14.4 334.87 0 331.12 0 331.12-13.95Q331.12-17.85 329.44-19.88 327.77-21.9 324.62-21.9L324.62-21.9Q321.37-21.9 319.54-19.75 317.72-17.6 317.72-13.4L317.72-13.4 317.72 0 313.97 0ZM339.97-25L343.72-25 343.72-32 347.47-32 347.47-25 354.12-25 354.12-21.5 347.47-21.5 347.47-8.05Q347.47-5.75 348.44-4.7 349.42-3.65 350.94-3.45 352.47-3.25 354.12-3.45L354.12-3.45 354.12-0.2Q352.17 0.25 350.29 0.05 348.42-0.15 346.94-1.07 345.47-2 344.59-3.7 343.72-5.4 343.72-8.05L343.72-8.05 343.72-21.5 339.97-21.5 339.97-25ZM370.21 0.35L370.21 0.35Q366.71 0.35 363.99-1.35 361.26-3.05 359.71-6 358.16-8.95 358.16-12.75L358.16-12.75Q358.16-16.4 359.71-19.25 361.26-22.1 363.96-23.73 366.66-25.35 370.11-25.35L370.11-25.35Q373.51-25.35 376.19-23.85 378.86-22.35 380.36-19.7 381.86-17.05 381.76-13.65L381.76-13.65Q381.76-13.1 381.71-12.5 381.66-11.9 381.61-11.2L381.61-11.2 362.26-11.2Q362.36-8.85 363.41-7.05 364.46-5.25 366.19-4.23 367.91-3.2 370.11-3.2L370.11-3.2Q373.01-3.2 375.04-4.3 377.06-5.4 377.96-7.45L377.96-7.45 381.21-6.15Q379.71-3 376.86-1.33 374.01 0.35 370.21 0.35ZM362.31-14.45L377.66-14.45Q377.71-16.6 376.74-18.25 375.76-19.9 374.01-20.85 372.26-21.8 369.96-21.8L369.96-21.8Q367.96-21.8 366.31-20.85 364.66-19.9 363.59-18.23 362.51-16.55 362.31-14.45L362.31-14.45ZM387.91 0L387.91-36 391.66-36 391.66 0 387.91 0ZM399.31 0L399.31-36 403.06-36 403.06 0 399.31 0ZM411.46 0L411.46-25 415.16-25 415.16 0 411.46 0ZM413.36-30L413.36-30Q412.21-30 411.46-30.75 410.71-31.5 410.71-32.6L410.71-32.6Q410.71-33.75 411.46-34.5 412.21-35.25 413.36-35.25L413.36-35.25Q414.41-35.25 415.18-34.5 415.96-33.75 415.96-32.6L415.96-32.6Q415.96-31.5 415.18-30.75 414.41-30 413.36-30ZM442.55-20.35L442.8-25 446.25-25 446.25-4.6Q446.25 0 444.2 3.28 442.15 6.55 438.25 8.28 434.35 10 428.75 10L428.75 10 428.15 6.55Q435.2 6.45 438.85 3.63 442.5 0.8 442.5-4.6L442.5-4.6 442.5-5.15 442.9-5.05Q441.75-2.85 439.45-1.28 437.15 0.3 433.5 0.35L433.5 0.35Q430.05 0.35 427.48-1.23 424.9-2.8 423.48-5.7 422.05-8.6 422.05-12.5L422.05-12.5Q422.05-16.4 423.48-19.28 424.9-22.15 427.48-23.75 430.05-25.35 433.5-25.35L433.5-25.35Q435.75-25.35 437.5-24.68 439.25-24 440.5-22.88 441.75-21.75 442.55-20.35L442.55-20.35ZM426.1-12.5L426.1-12.5Q426.1-8.2 428.33-5.68 430.55-3.15 434.35-3.15L434.35-3.15Q436.65-3.15 438.5-4.25 440.35-5.35 441.43-7.45 442.5-9.55 442.5-12.5L442.5-12.5Q442.5-15.45 441.43-17.53 440.35-19.6 438.5-20.73 436.65-21.85 434.35-21.85L434.35-21.85Q430.6-21.85 428.35-19.3 426.1-16.75 426.1-12.5ZM464.4 0.35L464.4 0.35Q460.9 0.35 458.18-1.35 455.45-3.05 453.9-6 452.35-8.95 452.35-12.75L452.35-12.75Q452.35-16.4 453.9-19.25 455.45-22.1 458.15-23.73 460.85-25.35 464.3-25.35L464.3-25.35Q467.7-25.35 470.38-23.85 473.05-22.35 474.55-19.7 476.05-17.05 475.95-13.65L475.95-13.65Q475.95-13.1 475.9-12.5 475.85-11.9 475.8-11.2L475.8-11.2 456.45-11.2Q456.55-8.85 457.6-7.05 458.65-5.25 460.38-4.23 462.1-3.2 464.3-3.2L464.3-3.2Q467.2-3.2 469.23-4.3 471.25-5.4 472.15-7.45L472.15-7.45 475.4-6.15Q473.9-3 471.05-1.33 468.2 0.35 464.4 0.35ZM456.5-14.45L471.85-14.45Q471.9-16.6 470.93-18.25 469.95-19.9 468.2-20.85 466.45-21.8 464.15-21.8L464.15-21.8Q462.15-21.8 460.5-20.85 458.85-19.9 457.78-18.23 456.7-16.55 456.5-14.45L456.5-14.45ZM482.1 0L482.1-25 485.55-25 485.75-21.45Q486.95-23.3 488.9-24.33 490.85-25.35 493.45-25.35L493.45-25.35Q496.3-25.35 498.45-24.13 500.6-22.9 501.8-20.48 503-18.05 503-14.4L503-14.4 503 0 499.25 0 499.25-13.95Q499.25-17.85 497.57-19.88 495.9-21.9 492.75-21.9L492.75-21.9Q489.5-21.9 487.67-19.75 485.85-17.6 485.85-13.4L485.85-13.4 485.85 0 482.1 0ZM520.89 0.35L520.89 0.35Q517.25 0.35 514.5-1.25 511.75-2.85 510.22-5.73 508.7-8.6 508.7-12.4L508.7-12.4Q508.7-16.25 510.22-19.18 511.75-22.1 514.5-23.73 517.25-25.35 520.89-25.35L520.89-25.35Q524.75-25.35 527.64-23.58 530.55-21.8 531.85-18.65L531.85-18.65 528.39-17.45Q527.64-19.45 525.67-20.63 523.7-21.8 521.1-21.8L521.1-21.8Q518.55-21.8 516.67-20.65 514.8-19.5 513.77-17.4 512.75-15.3 512.75-12.45L512.75-12.45Q512.75-8.25 515-5.73 517.25-3.2 521-3.2L521-3.2Q523.55-3.2 525.55-4.35 527.55-5.5 528.5-7.45L528.5-7.45 531.89-6.25Q530.55-3.15 527.64-1.4 524.75 0.35 520.89 0.35ZM548.54 0.35L548.54 0.35Q545.04 0.35 542.32-1.35 539.59-3.05 538.04-6 536.49-8.95 536.49-12.75L536.49-12.75Q536.49-16.4 538.04-19.25 539.59-22.1 542.29-23.73 544.99-25.35 548.44-25.35L548.44-25.35Q551.84-25.35 554.52-23.85 557.19-22.35 558.69-19.7 560.19-17.05 560.09-13.65L560.09-13.65Q560.09-13.1 560.04-12.5 559.99-11.9 559.94-11.2L559.94-11.2 540.59-11.2Q540.69-8.85 541.74-7.05 542.79-5.25 544.52-4.23 546.24-3.2 548.44-3.2L548.44-3.2Q551.34-3.2 553.37-4.3 555.39-5.4 556.29-7.45L556.29-7.45 559.54-6.15Q558.04-3 555.19-1.33 552.34 0.35 548.54 0.35ZM540.64-14.45L555.99-14.45Q556.04-16.6 555.07-18.25 554.09-19.9 552.34-20.85 550.59-21.8 548.29-21.8L548.29-21.8Q546.29-21.8 544.64-20.85 542.99-19.9 541.92-18.23 540.84-16.55 540.64-14.45L540.64-14.45ZM594.04 5L594.04-8.15 598.04-8.15 598.04 5 594.04 5ZM595.99 0.35L595.99 0.35Q592.29 0.35 589.11-0.95 585.94-2.25 583.56-4.63 581.19-7 579.86-10.28 578.54-13.55 578.54-17.5L578.54-17.5Q578.54-21.45 579.86-24.73 581.19-28 583.56-30.38 585.94-32.75 589.11-34.05 592.29-35.35 595.99-35.35L595.99-35.35Q599.64-35.35 602.81-34.05 605.99-32.75 608.34-30.38 610.69-28 612.01-24.73 613.34-21.45 613.34-17.5L613.34-17.5Q613.34-13.55 612.01-10.28 610.69-7 608.34-4.63 605.99-2.25 602.81-0.95 599.64 0.35 595.99 0.35ZM595.99-3.15L595.99-3.15Q599.74-3.15 602.74-4.9 605.74-6.65 607.49-9.88 609.24-13.1 609.24-17.5L609.24-17.5Q609.24-21.95 607.49-25.18 605.74-28.4 602.74-30.13 599.74-31.85 595.99-31.85L595.99-31.85Q592.19-31.85 589.16-30.13 586.14-28.4 584.39-25.18 582.64-21.95 582.64-17.5L582.64-17.5Q582.64-13.1 584.39-9.88 586.14-6.65 589.16-4.9 592.19-3.15 595.99-3.15ZM644.58 0L633.13-31.5 631.48-31.5 619.93 0 615.88 0 628.68-35 635.88-35 648.63 0 644.58 0ZM622.13-9.2L622.13-12.7 642.53-12.7 642.53-9.2 622.13-9.2ZM665.33-6.45L668.93-7.65Q669.23-6.15 670.03-5.18 670.83-4.2 672.1-3.7 673.38-3.2 675.08-3.2L675.08-3.2Q677.73-3.2 679.1-4.23 680.48-5.25 680.48-6.8L680.48-6.8Q680.48-8.1 679.65-8.9 678.83-9.7 677.48-10.23 676.13-10.75 674.48-11.15L674.48-11.15Q673.18-11.45 671.68-11.88 670.18-12.3 668.83-13.05 667.48-13.8 666.63-15 665.78-16.2 665.78-18.15L665.78-18.15Q665.78-20.3 666.95-21.93 668.13-23.55 670.2-24.45 672.28-25.35 674.98-25.35L674.98-25.35Q678.08-25.35 680.5-24 682.93-22.65 683.88-19.8L683.88-19.8 680.38-18.6Q680.03-19.9 679.1-20.6 678.18-21.3 677.05-21.55 675.93-21.8 674.83-21.8L674.83-21.8Q672.58-21.8 671.2-20.93 669.83-20.05 669.83-18.3L669.83-18.3Q669.83-17.35 670.28-16.73 670.73-16.1 671.53-15.7 672.33-15.3 673.43-15.03 674.53-14.75 675.83-14.4L675.83-14.4Q677.28-14.05 678.78-13.53 680.28-13 681.58-12.18 682.88-11.35 683.7-10.08 684.53-8.8 684.53-6.9L684.53-6.9Q684.53-4.7 683.33-3.08 682.13-1.45 680-0.55 677.88 0.35 675.08 0.35L675.08 0.35Q671.23 0.35 668.7-1.38 666.18-3.1 665.33-6.45L665.33-6.45ZM699.83-4.8L707.58-25 711.48-25 697.18 10 693.58 10 697.83-0.35 687.73-25 691.83-25 699.83-4.8ZM714.72-6.45L718.32-7.65Q718.62-6.15 719.42-5.18 720.22-4.2 721.5-3.7 722.77-3.2 724.47-3.2L724.47-3.2Q727.12-3.2 728.5-4.23 729.87-5.25 729.87-6.8L729.87-6.8Q729.87-8.1 729.05-8.9 728.22-9.7 726.87-10.23 725.52-10.75 723.87-11.15L723.87-11.15Q722.57-11.45 721.07-11.88 719.57-12.3 718.22-13.05 716.87-13.8 716.02-15 715.17-16.2 715.17-18.15L715.17-18.15Q715.17-20.3 716.35-21.93 717.52-23.55 719.6-24.45 721.67-25.35 724.37-25.35L724.37-25.35Q727.47-25.35 729.9-24 732.32-22.65 733.27-19.8L733.27-19.8 729.77-18.6Q729.42-19.9 728.5-20.6 727.57-21.3 726.45-21.55 725.32-21.8 724.22-21.8L724.22-21.8Q721.97-21.8 720.6-20.93 719.22-20.05 719.22-18.3L719.22-18.3Q719.22-17.35 719.67-16.73 720.12-16.1 720.92-15.7 721.72-15.3 722.82-15.03 723.92-14.75 725.22-14.4L725.22-14.4Q726.67-14.05 728.17-13.53 729.67-13 730.97-12.18 732.27-11.35 733.1-10.08 733.92-8.8 733.92-6.9L733.92-6.9Q733.92-4.7 732.72-3.08 731.52-1.45 729.4-0.55 727.27 0.35 724.47 0.35L724.47 0.35Q720.62 0.35 718.1-1.38 715.57-3.1 714.72-6.45L714.72-6.45ZM737.87-25L741.62-25 741.62-32 745.37-32 745.37-25 752.02-25 752.02-21.5 745.37-21.5 745.37-8.05Q745.37-5.75 746.35-4.7 747.32-3.65 748.85-3.45 750.37-3.25 752.02-3.45L752.02-3.45 752.02-0.2Q750.07 0.25 748.2 0.05 746.32-0.15 744.85-1.07 743.37-2 742.5-3.7 741.62-5.4 741.62-8.05L741.62-8.05 741.62-21.5 737.87-21.5 737.87-25ZM768.12 0.35L768.12 0.35Q764.62 0.35 761.89-1.35 759.17-3.05 757.62-6 756.07-8.95 756.07-12.75L756.07-12.75Q756.07-16.4 757.62-19.25 759.17-22.1 761.87-23.73 764.57-25.35 768.02-25.35L768.02-25.35Q771.42-25.35 774.09-23.85 776.77-22.35 778.27-19.7 779.77-17.05 779.67-13.65L779.67-13.65Q779.67-13.1 779.62-12.5 779.57-11.9 779.52-11.2L779.52-11.2 760.17-11.2Q760.27-8.85 761.32-7.05 762.37-5.25 764.09-4.23 765.82-3.2 768.02-3.2L768.02-3.2Q770.92-3.2 772.94-4.3 774.97-5.4 775.87-7.45L775.87-7.45 779.12-6.15Q777.62-3 774.77-1.33 771.92 0.35 768.12 0.35ZM760.22-14.45L775.57-14.45Q775.62-16.6 774.64-18.25 773.67-19.9 771.92-20.85 770.17-21.8 767.87-21.8L767.87-21.8Q765.87-21.8 764.22-20.85 762.57-19.9 761.49-18.23 760.42-16.55 760.22-14.45L760.22-14.45ZM785.82 0L785.82-25 789.27-25 789.52-21.4Q790.62-23.2 792.49-24.28 794.37-25.35 796.97-25.35L796.97-25.35Q799.62-25.35 801.79-24.08 803.97-22.8 805.17-20.3L805.17-20.3Q806.32-22.85 808.67-24.1 811.02-25.35 813.87-25.35L813.87-25.35Q816.67-25.35 818.82-24.13 820.97-22.9 822.17-20.48 823.37-18.05 823.37-14.4L823.37-14.4 823.37 0 819.62 0 819.62-13.95Q819.62-17.85 817.94-19.88 816.27-21.9 813.17-21.9L813.17-21.9Q810.02-21.9 808.17-19.73 806.32-17.55 806.32-13.3L806.32-13.3 806.32 0 802.57 0 802.57-13.95Q802.57-17.85 800.97-19.88 799.37-21.9 796.27-21.9L796.27-21.9Q793.12-21.9 791.34-19.73 789.57-17.55 789.57-13.3L789.57-13.3 789.57 0 785.82 0Z" opacity="1" transform="matrix(1,0,0,1,0,0)" fill="#009b7d" class="slogan-text-1" data-fill-palette-color="secondary" id="text-1"></path>
                  </svg>
                </g>
              </svg>
            </g>
          </svg>
        </g>
      </svg>
    </g>
    <g transform="matrix(1,0,0,1,76.53311999999997,0)">
      <svg viewBox="0 0 244.43135999999998 317.8175443478261" height="317.8175443478261" width="244.43135999999998">
        <g>
          <svg xmlns="http://www.w3.org/2000/svg" data-name="Layer 1" viewBox="18 0 92 128" x="8" y="0" height="317.8175443478261" width="228.43135999999998" class="icon-icon-0" data-fill-palette-color="accent" id="icon-0">
            <path d="M38 24A12 12 0 1 0 26 12 12.013 12.013 0 0 0 38 24M38 4A8 8 0 1 1 30 12 8.01 8.01 0 0 1 38 4" fill="#ffbf5d" data-fill-palette-color="accent"></path>
            <path d="M74 114A8.01 8.01 0 0 1 66 106V94.144L94.084 77.623A12.04 12.04 0 0 0 100 67.28V60.861A14.5 14.5 0 0 1 96 60.861V67.28A8.03 8.03 0 0 1 92.056 74.18L66 89.5V22A12.013 12.013 0 0 0 54 10H53.861A16 16 0 0 1 54 12 16 16 0 0 1 53.861 14H54A8.01 8.01 0 0 1 62 22V32.856L33.916 49.377A12.04 12.04 0 0 0 28 59.72V66.139A14.5 14.5 0 0 1 32 66.139V59.72A8.03 8.03 0 0 1 35.944 52.82L62 37.5V106A12.013 12.013 0 0 0 74 118H75.139A14.5 14.5 0 0 1 75.139 114Z" fill="#ffbf5d" data-fill-palette-color="accent"></path>
            <path d="M91 104A12 12 0 1 0 103 116 12.013 12.013 0 0 0 91 104M91 124A8 8 0 1 1 99 116 8.01 8.01 0 0 1 91 124" fill="#ffbf5d" data-fill-palette-color="accent"></path>
            <path d="M30 70A12 12 0 1 0 42 82 12.013 12.013 0 0 0 30 70M30 90A8 8 0 1 1 38 82 8.01 8.01 0 0 1 30 90" fill="#ffbf5d" data-fill-palette-color="accent"></path>
            <path d="M98 33A12 12 0 1 0 110 45 12.013 12.013 0 0 0 98 33M98 53A8 8 0 1 1 106 45 8.01 8.01 0 0 1 98 53" fill="#ffbf5d" data-fill-palette-color="accent"></path>
          </svg>
        </g>
      </svg>
    </g>
  </svg>
</svg>