<svg width="100" height="60" viewBox="0 0 100 60" fill="none" xmlns="http://www.w3.org/2000/svg">
<g id="Layer_1" clip-path="url(#clip0_8_64)">
<path id="Vector" d="M94.8219 34.583C97.7687 34.583 99.8229 32.7891 99.8229 30.2172V4.3658C99.8229 1.79397 97.7687 0 94.8219 0C91.8751 0 89.8208 1.79397 89.8208 4.3658V30.2102C89.8208 32.7821 91.8751 34.576 94.8219 34.576V34.583Z" fill="#296AE5"/>
<path id="Vector_2" d="M48.4664 29.2362H43.8478C44.9104 24.7373 45.4488 19.3694 45.4488 13.2376V8.92087C45.4488 4.56208 43.6991 2.86621 39.208 2.86621H10.3138C7.99037 2.86621 6.43196 4.61814 6.43196 7.23201C6.43196 9.84589 7.99037 11.5978 10.3138 11.5978H35.4962C35.5458 11.5978 35.5883 11.5978 35.6237 11.5978C35.6237 11.6329 35.6237 11.6749 35.6237 11.724V13.5319C35.6237 14.3238 35.6237 15.0877 35.6096 15.8305L9.07417 16.1108C8.03995 16.1108 7.13324 16.4822 6.45321 17.176C5.63151 18.0169 5.20649 19.2642 5.25607 20.6938C5.34816 23.2446 6.94199 24.9615 9.22292 24.8984L35.0783 24.3448C34.8587 26.1178 34.5399 27.7646 34.2212 29.2362H3.88184C1.5584 29.2362 0 30.9881 0 33.602C0 36.2159 1.5584 37.9048 3.88184 37.9048H13.0339V55.6903C13.0339 58.2692 14.9961 59.993 17.9217 59.993C20.8472 59.993 22.7456 58.2201 22.7456 55.6903V37.9048H29.6026V55.6903C29.6026 58.2692 31.5648 59.993 34.4903 59.993C37.4159 59.993 39.3143 58.2201 39.3143 55.6903V37.9048H48.4664C50.7898 37.9048 52.3482 36.1738 52.3482 33.602C52.3482 31.0302 50.7898 29.2362 48.4664 29.2362Z" fill="#296AE5"/>
<path id="Vector_3" d="M84.7276 16.6783C84.7276 7.72245 78.834 2.15833 69.3419 2.15833C59.8498 2.15833 53.9562 7.72245 53.9562 16.6783C53.9562 25.6341 59.8498 31.1913 69.3419 31.1913C78.834 31.1913 84.7276 25.6271 84.7276 16.6783ZM63.6112 16.6783C63.6112 12.761 65.538 10.7778 69.3419 10.7778C73.1458 10.7778 75.0726 12.768 75.0726 16.6783C75.0726 20.5886 73.1458 22.5788 69.3419 22.5788C65.538 22.5788 63.6112 20.5956 63.6112 16.6783Z" fill="#296AE5"/>
<path id="Vector_4" d="M81.0795 34.9264C68.8744 34.9264 62.1591 39.3763 62.1591 47.4632C62.1591 55.5501 68.8814 60 81.0795 60C93.2776 60 100 55.5501 100 47.4632C100 39.3763 93.2776 34.9264 81.0795 34.9264ZM81.0795 51.6188C75.1222 51.6188 72.1045 50.2242 72.1045 47.4702C72.1045 44.7162 75.1222 43.3146 81.0795 43.3146C87.0369 43.3146 90.0545 44.7162 90.0545 47.4702C90.0545 50.2242 87.0369 51.6188 81.0795 51.6188Z" fill="#296AE5"/>
<path id="Vector_5" d="M58.7235 55.473L54.0199 46.2578C53.4603 45.1576 52.3269 44.5339 51.1581 44.548C49.9893 44.5339 48.863 45.1576 48.2963 46.2578L43.5928 55.473C42.8065 57.0077 43.4299 58.8857 44.9812 59.6636C46.5325 60.4414 48.4309 59.8248 49.2172 58.2901L51.1581 54.4989L53.099 58.2901C53.8853 59.8248 55.7767 60.4414 57.3351 59.6636C58.8864 58.8857 59.5098 57.0147 58.7235 55.473Z" fill="#5EC3FF"/>
</g>
<defs>
<clipPath id="clip0_8_64">
<rect width="100" height="60" fill="white"/>
</clipPath>
</defs>
</svg>
